<?xml version="1.0" standalone="no"?>
<!DOCTYPE svg PUBLIC "-//W3C//DTD SVG 20010904//EN"
 "http://www.w3.org/TR/2001/REC-SVG-20010904/DTD/svg10.dtd">
<svg version="1.0" xmlns="http://www.w3.org/2000/svg"
 width="260.000000pt" height="260.000000pt" viewBox="0 0 260.000000 260.000000"
 preserveAspectRatio="xMidYMid meet">
<metadata>
Created by potrace 1.14, written by Peter Selinger 2001-2017
</metadata>
<g transform="translate(0.000000,260.000000) scale(0.100000,-0.100000)"
fill="#000000" stroke="none">
<path d="M0 1300 l0 -1300 1300 0 1300 0 0 1300 0 1300 -1300 0 -1300 0 0
-1300z m277 289 c47 -23 51 -35 28 -80 l-16 -30 -26 21 c-58 45 -123 12 -123
-62 0 -74 62 -111 119 -71 23 16 25 15 43 -7 24 -29 20 -47 -13 -72 -65 -49
-175 -24 -221 50 -33 54 -32 145 2 195 28 42 90 77 134 77 16 0 49 -9 73 -21z
m2019 -149 l-1 -170 -37 0 c-20 0 -38 6 -41 13 -4 10 -7 10 -18 0 -7 -7 -30
-13 -52 -13 -96 0 -143 134 -69 202 35 33 71 41 105 23 l27 -14 0 59 0 59 33
4 c17 2 37 5 43 5 7 1 10 -52 10 -168z m-902 124 c10 -4 16 -18 16 -40 0 -31
3 -34 30 -34 28 0 30 -3 30 -35 0 -32 -2 -35 -31 -35 -29 0 -30 -2 -27 -37 3
-35 6 -38 36 -41 25 -3 32 -7 28 -19 -3 -8 -6 -21 -6 -28 0 -23 -75 -38 -108
-23 -25 12 -27 18 -30 81 -2 51 -6 67 -17 67 -20 0 -20 59 0 66 10 4 15 20 15
45 0 35 3 39 24 39 13 0 31 -3 40 -6z m-864 -83 c14 -10 31 -36 38 -58 26 -79
-25 -154 -106 -157 -75 -2 -122 45 -122 119 0 62 27 97 90 119 23 7 72 -4 100
-23z m500 14 c45 -23 78 -103 51 -119 -5 -4 -37 -9 -70 -12 -34 -4 -61 -11
-61 -15 0 -15 53 -22 82 -11 26 10 30 8 40 -14 18 -38 -8 -58 -76 -58 -67 -1
-105 24 -124 79 -18 54 1 111 47 142 40 27 71 29 111 8z m252 -3 c5 -5 6 -21
2 -36 -5 -21 -12 -26 -38 -26 -38 0 -56 -15 -56 -47 0 -27 33 -47 65 -39 20 5
24 1 30 -25 9 -39 -3 -51 -53 -53 -75 -2 -125 46 -125 120 0 51 24 91 66 110
32 14 93 12 109 -4z m1228 -11 c37 -27 51 -60 47 -109 -11 -112 -151 -146
-215 -52 -18 27 -23 44 -19 73 13 99 110 145 187 88z m-1820 3 c0 -14 2 -14
22 0 31 22 84 20 108 -4 17 -17 20 -33 20 -115 l0 -95 -45 0 -45 0 0 75 c0 58
-3 77 -15 81 -31 12 -45 -15 -45 -87 l0 -69 -40 0 -40 0 0 64 c0 35 -3 84 -6
109 -6 44 -6 46 22 50 56 8 64 7 64 -9z m955 6 c5 -8 11 -8 19 0 7 5 26 7 42
4 l30 -6 0 -109 1 -109 -38 0 c-20 0 -39 5 -41 10 -2 7 -15 5 -35 -5 -28 -14
-36 -14 -67 -1 -80 34 -90 170 -15 212 29 16 95 18 104 4z m215 -5 c0 -14 3
-14 30 0 38 20 79 19 102 -2 15 -13 18 -32 18 -115 l0 -98 -40 0 -39 0 -3 78
c-3 75 -4 77 -28 77 -24 0 -25 -3 -30 -75 l-5 -75 -42 -3 -43 -3 0 95 c0 52
-3 101 -6 109 -4 11 2 17 23 20 54 8 63 7 63 -8z m-750 -315 c0 -10 -74 -46
-112 -55 -23 -6 -28 -4 -28 12 0 13 17 31 48 50 43 27 49 28 70 15 12 -8 22
-18 22 -22z m-254 -5 c18 -45 18 -45 -11 -45 -39 0 -41 -26 -8 -73 17 -23 33
-52 37 -63 16 -51 -45 -124 -103 -124 -58 0 -86 63 -32 73 44 9 47 34 10 87
-54 75 -43 126 36 161 53 25 54 24 71 -16z m598 -7 c14 -23 -3 -52 -33 -56
-42 -6 -67 38 -39 66 17 17 58 11 72 -10z m431 -109 c-4 -5 -15 -9 -26 -9 -25
0 -25 -31 1 -55 12 -11 20 -31 20 -51 0 -63 -90 -100 -125 -51 -15 21 -14 23
15 35 16 6 30 14 30 17 0 3 -12 24 -27 46 -25 38 -26 43 -12 67 8 15 30 35 49
45 35 17 35 17 58 -9 12 -14 20 -30 17 -35z m-795 22 c38 -27 51 -60 46 -111
-6 -63 -48 -100 -114 -100 -27 0 -57 7 -70 16 -74 51 -62 173 21 210 38 17 82
11 117 -15z m242 11 c5 -5 6 -21 2 -36 -5 -21 -12 -26 -38 -26 -38 0 -56 -15
-56 -47 0 -27 33 -47 65 -39 20 5 24 1 30 -24 9 -42 0 -50 -60 -50 -46 0 -58
4 -83 29 -34 34 -45 76 -32 121 12 41 28 60 65 77 31 13 91 11 107 -5z m348
-11 c57 -40 58 -147 3 -190 -33 -27 -118 -29 -149 -3 -62 50 -57 167 8 199 53
26 95 25 138 -6z m-220 -101 l0 -110 -45 0 -45 0 0 110 0 110 45 0 45 0 0
-110z"/>
<path d="M2134 1403 c-9 -33 7 -58 36 -58 29 0 45 25 36 58 -5 22 -12 27 -36
27 -24 0 -31 -5 -36 -27z"/>
<path d="M424 1416 c-3 -8 -4 -27 -2 -43 2 -22 9 -29 30 -31 35 -4 57 33 39
67 -13 24 -59 29 -67 7z"/>
<path d="M950 1435 c-17 -21 -9 -27 31 -23 31 3 32 4 15 21 -21 21 -30 21 -46
2z"/>
<path d="M2410 1416 c-28 -35 11 -93 48 -70 35 22 22 84 -18 84 -10 0 -23 -7
-30 -14z"/>
<path d="M1582 1418 c-17 -17 -15 -53 3 -68 20 -17 62 -5 70 20 14 44 -41 80
-73 48z"/>
<path d="M990 1006 c-28 -35 11 -93 48 -70 35 22 22 84 -18 84 -10 0 -23 -7
-30 -14z"/>
<path d="M1574 1006 c-3 -8 -4 -27 -2 -43 2 -22 9 -29 30 -31 35 -4 57 33 39
67 -13 24 -59 29 -67 7z"/>
</g>
</svg>
